<svg width="20" height="21" viewBox="0 0 20 21" fill="none" xmlns="http://www.w3.org/2000/svg">
<path fill-rule="evenodd" clip-rule="evenodd" d="M9.99994 0.995117C12.5591 0.995117 15.1183 1.97152 17.0709 3.92412C20.9762 7.82932 20.9762 14.1609 17.0709 18.0663C15.1184 20.0189 12.5592 20.9952 9.99994 20.9952C7.44074 20.9952 4.88154 20.0189 2.92894 18.0663C-0.976362 14.161 -0.976263 7.82932 2.92894 3.92412C4.88154 1.97142 7.44074 0.995117 9.99994 0.995117ZM9.99994 18.9951C12.1368 18.9951 14.1458 18.163 15.6568 16.652C17.1677 15.141 17.9999 13.132 17.9999 10.9952C17.9999 8.85832 17.1677 6.84932 15.6568 5.33832C14.1458 3.82732 12.1368 2.99512 9.99994 2.99512C7.86304 2.99512 5.85404 3.82732 4.34304 5.33832C2.83214 6.84932 1.99994 8.85832 1.99994 10.9951C1.99994 13.132 2.83214 15.141 4.34304 16.652C5.85414 18.163 7.86314 18.9951 9.99994 18.9951ZM9.99818 9.58258L12.8257 6.75488L14.2398 8.16898L11.4122 10.9968L14.2431 13.828L12.8291 15.2421L9.99818 12.4109L7.16888 15.2403L5.75488 13.8262L8.58418 10.9967L5.75848 8.17048L7.17258 6.75648L9.99818 9.58258Z" fill="#ADA6AE"/>
</svg>
