<svg width="49" height="48" viewBox="0 0 49 48" fill="none" xmlns="http://www.w3.org/2000/svg">
<path d="M0.5 24C0.5 10.7452 11.2452 0 24.5 0C37.7548 0 48.5 10.7452 48.5 24C48.5 37.2548 37.7548 48 24.5 48C11.2452 48 0.5 37.2548 0.5 24Z" fill="#F7F6F6"/>
<path d="M22.9415 34L18.7564 29.729L14.5 25.557L17.1537 22.9044L20.3288 24.2307L22.7327 21.8264L15.0623 18.0921L19.1541 14L27.0504 17.5089L29.4115 15.1475C30.2488 14.3121 32.0181 13.5891 33.4643 15.0352C34.9101 16.4804 34.1893 18.251 33.352 19.0883L30.9919 21.4488L34.5 29.3456L30.4063 33.4377L26.6818 25.7587L24.2693 28.1706L25.5957 31.3455L22.9415 34ZM17.2697 25.5437L20.1346 28.3514L22.9557 31.2295L23.2939 30.8908L21.9675 27.7159L27.2401 22.444L30.9646 30.1249L32.1754 28.9137L28.6673 21.0168L31.9742 17.7106C32.2278 17.4461 32.5893 16.9162 32.0865 16.4129C31.538 15.8649 30.9547 16.3596 30.7892 16.5252L27.4824 19.8324L19.5861 16.3234L18.3735 17.5365L26.0438 21.2709L20.7826 26.5314L17.6075 25.205L17.2697 25.5437Z" fill="#ADA6AE"/>
</svg>
